<svg xmlns="http://www.w3.org/2000/svg" version="1.1" xmlns:xlink="http://www.w3.org/1999/xlink" xmlns:svgjs="http://svgjs.dev/svgjs" width="1300" height="200" preserveAspectRatio="none" viewBox="0 0 1300 200"><g mask="url(&quot;#SvgjsMask1282&quot;)" fill="none"><rect width="1300" height="200" x="0" y="0" fill="rgba(244, 244, 244, 1)"></rect><path d="M1 200L201 0L285 0L85 200z" fill="url(&quot;#SvgjsLinearGradient1283&quot;)"></path><path d="M247.5 200L447.5 0L521 0L321 200z" fill="url(&quot;#SvgjsLinearGradient1283&quot;)"></path><path d="M463 200L663 0L807 0L607 200z" fill="url(&quot;#SvgjsLinearGradient1283&quot;)"></path><path d="M686.5 200L886.5 0L996 0L796 200z" fill="url(&quot;#SvgjsLinearGradient1283&quot;)"></path><path d="M1272 200L1072 0L859 0L1059 200z" fill="url(&quot;#SvgjsLinearGradient1284&quot;)"></path><path d="M1081.5 200L881.5 0L569.5 0L769.5 200z" fill="url(&quot;#SvgjsLinearGradient1284&quot;)"></path><path d="M857 200L657 0L495 0L695 200z" fill="url(&quot;#SvgjsLinearGradient1284&quot;)"></path><path d="M652.5 200L452.5 0L347.5 0L547.5 200z" fill="url(&quot;#SvgjsLinearGradient1284&quot;)"></path><path d="M1191.6383954838745 200L1300 91.63839548387445L1300 200z" fill="url(&quot;#SvgjsLinearGradient1283&quot;)"></path><path d="M0 200L108.36160451612555 200L 0 91.63839548387445z" fill="url(&quot;#SvgjsLinearGradient1284&quot;)"></path></g><defs><mask id="SvgjsMask1282"><rect width="1300" height="200" fill="#ffffff"></rect></mask><linearGradient x1="0%" y1="100%" x2="100%" y2="0%" id="SvgjsLinearGradient1283"><stop stop-color="rgba(123, 123, 123, 0.2)" offset="0"></stop><stop stop-opacity="0" stop-color="rgba(123, 123, 123, 0.2)" offset="0.66"></stop></linearGradient><linearGradient x1="100%" y1="100%" x2="0%" y2="0%" id="SvgjsLinearGradient1284"><stop stop-color="rgba(123, 123, 123, 0.2)" offset="0"></stop><stop stop-opacity="0" stop-color="rgba(123, 123, 123, 0.2)" offset="0.66"></stop></linearGradient></defs></svg>