<svg xmlns="http://www.w3.org/2000/svg" version="1.1" xmlns:xlink="http://www.w3.org/1999/xlink" xmlns:svgjs="http://svgjs.dev/svgjs" width="1300" height="400" preserveAspectRatio="none" viewBox="0 0 1300 400"><g mask="url(&quot;#SvgjsMask1014&quot;)" fill="none"><rect width="1300" height="400" x="0" y="0" fill="#0e2a47"></rect><path d="M-106.55 410.18L-106.55 410.18" stroke="#132e65" stroke-width="1.5"></path><path d="M-106.55 410.18L-50.63 558.59" stroke="#132e65" stroke-width="1.5"></path><path d="M-106.55 410.18L50.96 496.03" stroke="#132e65" stroke-width="1.5"></path><path d="M-50.63 558.59L-50.63 558.59" stroke="#132e65" stroke-width="1.5"></path><path d="M-50.63 558.59L50.96 496.03" stroke="#132e65" stroke-width="1.5"></path><path d="M-50.63 558.59L104.21 369.71" stroke="#132e65" stroke-width="1.5"></path><path d="M-50.63 558.59L252.01 530.59" stroke="#132e65" stroke-width="1.5"></path><path d="M-50.63 558.59L243.31 358.1" stroke="#132e65" stroke-width="1.5"></path><path d="M-50.63 558.59L391.09 543.99" stroke="#132e65" stroke-width="1.5"></path><path d="M104.21 369.71L104.21 369.71" stroke="#132e65" stroke-width="1.5"></path><path d="M104.21 369.71L50.96 496.03" stroke="#132e65" stroke-width="1.5"></path><path d="M104.21 369.71L243.31 358.1" stroke="#132e65" stroke-width="1.5"></path><path d="M104.21 369.71L-106.55 410.18" stroke="#132e65" stroke-width="1.5"></path><path d="M104.21 369.71L252.01 530.59" stroke="#132e65" stroke-width="1.5"></path><path d="M50.96 496.03L50.96 496.03" stroke="#132e65" stroke-width="1.5"></path><path d="M50.96 496.03L252.01 530.59" stroke="#132e65" stroke-width="1.5"></path><path d="M50.96 496.03L243.31 358.1" stroke="#132e65" stroke-width="1.5"></path><path d="M243.31 358.1L243.31 358.1" stroke="#132e65" stroke-width="1.5"></path><path d="M243.31 358.1L406.07 399.94" stroke="#132e65" stroke-width="1.5"></path><path d="M243.31 358.1L252.01 530.59" stroke="#132e65" stroke-width="1.5"></path><path d="M243.31 358.1L401.74 210.33" stroke="#132e65" stroke-width="1.5"></path><path d="M252.01 530.59L252.01 530.59" stroke="#132e65" stroke-width="1.5"></path><path d="M252.01 530.59L391.09 543.99" stroke="#132e65" stroke-width="1.5"></path><path d="M252.01 530.59L406.07 399.94" stroke="#132e65" stroke-width="1.5"></path><path d="M401.74 210.33L401.74 210.33" stroke="#132e65" stroke-width="1.5"></path><path d="M401.74 210.33L406.07 399.94" stroke="#132e65" stroke-width="1.5"></path><path d="M401.74 210.33L501.03 390.63" stroke="#132e65" stroke-width="1.5"></path><path d="M406.07 399.94L406.07 399.94" stroke="#132e65" stroke-width="1.5"></path><path d="M406.07 399.94L501.03 390.63" stroke="#132e65" stroke-width="1.5"></path><path d="M406.07 399.94L391.09 543.99" stroke="#132e65" stroke-width="1.5"></path><path d="M406.07 399.94L509.18 508.56" stroke="#132e65" stroke-width="1.5"></path><path d="M391.09 543.99L391.09 543.99" stroke="#132e65" stroke-width="1.5"></path><path d="M391.09 543.99L509.18 508.56" stroke="#132e65" stroke-width="1.5"></path><path d="M391.09 543.99L501.03 390.63" stroke="#132e65" stroke-width="1.5"></path><path d="M501.03 390.63L501.03 390.63" stroke="#132e65" stroke-width="1.5"></path><path d="M501.03 390.63L509.18 508.56" stroke="#132e65" stroke-width="1.5"></path><path d="M501.03 390.63L643.51 342.39" stroke="#132e65" stroke-width="1.5"></path><path d="M509.18 508.56L509.18 508.56" stroke="#132e65" stroke-width="1.5"></path><path d="M509.18 508.56L662 545.77" stroke="#132e65" stroke-width="1.5"></path><path d="M699.33 227.01L699.33 227.01" stroke="#132e65" stroke-width="1.5"></path><path d="M699.33 227.01L643.51 342.39" stroke="#132e65" stroke-width="1.5"></path><path d="M699.33 227.01L792.18 352.27" stroke="#132e65" stroke-width="1.5"></path><path d="M699.33 227.01L833.8 97.35" stroke="#132e65" stroke-width="1.5"></path><path d="M699.33 227.01L501.03 390.63" stroke="#132e65" stroke-width="1.5"></path><path d="M699.33 227.01L967.32 356.82" stroke="#132e65" stroke-width="1.5"></path><path d="M643.51 342.39L643.51 342.39" stroke="#132e65" stroke-width="1.5"></path><path d="M643.51 342.39L792.18 352.27" stroke="#132e65" stroke-width="1.5"></path><path d="M662 545.77L662 545.77" stroke="#132e65" stroke-width="1.5"></path><path d="M662 545.77L821.6 522.81" stroke="#132e65" stroke-width="1.5"></path><path d="M662 545.77L643.51 342.39" stroke="#132e65" stroke-width="1.5"></path><path d="M662 545.77L501.03 390.63" stroke="#132e65" stroke-width="1.5"></path><path d="M662 545.77L792.18 352.27" stroke="#132e65" stroke-width="1.5"></path><path d="M855.95 -99.02L855.95 -99.02" stroke="#132e65" stroke-width="1.5"></path><path d="M855.95 -99.02L938.77 -92.18" stroke="#132e65" stroke-width="1.5"></path><path d="M855.95 -99.02L833.8 97.35" stroke="#132e65" stroke-width="1.5"></path><path d="M833.8 97.35L833.8 97.35" stroke="#132e65" stroke-width="1.5"></path><path d="M833.8 97.35L972.29 64.15" stroke="#132e65" stroke-width="1.5"></path><path d="M792.18 352.27L792.18 352.27" stroke="#132e65" stroke-width="1.5"></path><path d="M821.6 522.81L821.6 522.81" stroke="#132e65" stroke-width="1.5"></path><path d="M821.6 522.81L792.18 352.27" stroke="#132e65" stroke-width="1.5"></path><path d="M938.77 -92.18L938.77 -92.18" stroke="#132e65" stroke-width="1.5"></path><path d="M938.77 -92.18L972.29 64.15" stroke="#132e65" stroke-width="1.5"></path><path d="M938.77 -92.18L1123.85 -40.56" stroke="#132e65" stroke-width="1.5"></path><path d="M938.77 -92.18L833.8 97.35" stroke="#132e65" stroke-width="1.5"></path><path d="M938.77 -92.18L1109.51 51.8" stroke="#132e65" stroke-width="1.5"></path><path d="M938.77 -92.18L999.14 206.07" stroke="#132e65" stroke-width="1.5"></path><path d="M972.29 64.15L972.29 64.15" stroke="#132e65" stroke-width="1.5"></path><path d="M972.29 64.15L1109.51 51.8" stroke="#132e65" stroke-width="1.5"></path><path d="M999.14 206.07L999.14 206.07" stroke="#132e65" stroke-width="1.5"></path><path d="M999.14 206.07L972.29 64.15" stroke="#132e65" stroke-width="1.5"></path><path d="M999.14 206.07L967.32 356.82" stroke="#132e65" stroke-width="1.5"></path><path d="M999.14 206.07L1154.3 261.48" stroke="#132e65" stroke-width="1.5"></path><path d="M999.14 206.07L1109.51 51.8" stroke="#132e65" stroke-width="1.5"></path><path d="M999.14 206.07L833.8 97.35" stroke="#132e65" stroke-width="1.5"></path><path d="M999.14 206.07L1139.8 407.06" stroke="#132e65" stroke-width="1.5"></path><path d="M967.32 356.82L967.32 356.82" stroke="#132e65" stroke-width="1.5"></path><path d="M967.32 356.82L996.59 498.81" stroke="#132e65" stroke-width="1.5"></path><path d="M967.32 356.82L792.18 352.27" stroke="#132e65" stroke-width="1.5"></path><path d="M967.32 356.82L1139.8 407.06" stroke="#132e65" stroke-width="1.5"></path><path d="M967.32 356.82L1154.3 261.48" stroke="#132e65" stroke-width="1.5"></path><path d="M967.32 356.82L821.6 522.81" stroke="#132e65" stroke-width="1.5"></path><path d="M996.59 498.81L996.59 498.81" stroke="#132e65" stroke-width="1.5"></path><path d="M996.59 498.81L1149.04 548.96" stroke="#132e65" stroke-width="1.5"></path><path d="M996.59 498.81L1139.8 407.06" stroke="#132e65" stroke-width="1.5"></path><path d="M996.59 498.81L821.6 522.81" stroke="#132e65" stroke-width="1.5"></path><path d="M996.59 498.81L1241.42 553.75" stroke="#132e65" stroke-width="1.5"></path><path d="M1123.85 -40.56L1123.85 -40.56" stroke="#132e65" stroke-width="1.5"></path><path d="M1123.85 -40.56L1109.51 51.8" stroke="#132e65" stroke-width="1.5"></path><path d="M1123.85 -40.56L1241.39 -50.04" stroke="#132e65" stroke-width="1.5"></path><path d="M1123.85 -40.56L972.29 64.15" stroke="#132e65" stroke-width="1.5"></path><path d="M1109.51 51.8L1109.51 51.8" stroke="#132e65" stroke-width="1.5"></path><path d="M1109.51 51.8L1241.39 -50.04" stroke="#132e65" stroke-width="1.5"></path><path d="M1109.51 51.8L1154.3 261.48" stroke="#132e65" stroke-width="1.5"></path><path d="M1154.3 261.48L1154.3 261.48" stroke="#132e65" stroke-width="1.5"></path><path d="M1154.3 261.48L1279.96 204.16" stroke="#132e65" stroke-width="1.5"></path><path d="M1154.3 261.48L1139.8 407.06" stroke="#132e65" stroke-width="1.5"></path><path d="M1154.3 261.48L1247.34 380.97" stroke="#132e65" stroke-width="1.5"></path><path d="M1139.8 407.06L1139.8 407.06" stroke="#132e65" stroke-width="1.5"></path><path d="M1139.8 407.06L1247.34 380.97" stroke="#132e65" stroke-width="1.5"></path><path d="M1149.04 548.96L1149.04 548.96" stroke="#132e65" stroke-width="1.5"></path><path d="M1149.04 548.96L1241.42 553.75" stroke="#132e65" stroke-width="1.5"></path><path d="M1149.04 548.96L1139.8 407.06" stroke="#132e65" stroke-width="1.5"></path><path d="M1149.04 548.96L1247.34 380.97" stroke="#132e65" stroke-width="1.5"></path><path d="M1241.39 -50.04L1241.39 -50.04" stroke="#132e65" stroke-width="1.5"></path><path d="M1241.39 -50.04L1423.52 -50.23" stroke="#132e65" stroke-width="1.5"></path><path d="M1279.96 204.16L1279.96 204.16" stroke="#132e65" stroke-width="1.5"></path><path d="M1279.96 204.16L1437.42 227.82" stroke="#132e65" stroke-width="1.5"></path><path d="M1279.96 204.16L1247.34 380.97" stroke="#132e65" stroke-width="1.5"></path><path d="M1279.96 204.16L1398.48 348.47" stroke="#132e65" stroke-width="1.5"></path><path d="M1279.96 204.16L1399.78 40.59" stroke="#132e65" stroke-width="1.5"></path><path d="M1279.96 204.16L1109.51 51.8" stroke="#132e65" stroke-width="1.5"></path><path d="M1247.34 380.97L1247.34 380.97" stroke="#132e65" stroke-width="1.5"></path><path d="M1247.34 380.97L1398.48 348.47" stroke="#132e65" stroke-width="1.5"></path><path d="M1247.34 380.97L1241.42 553.75" stroke="#132e65" stroke-width="1.5"></path><path d="M1241.42 553.75L1241.42 553.75" stroke="#132e65" stroke-width="1.5"></path><path d="M1423.52 -50.23L1423.52 -50.23" stroke="#132e65" stroke-width="1.5"></path><path d="M1423.52 -50.23L1399.78 40.59" stroke="#132e65" stroke-width="1.5"></path><path d="M1399.78 40.59L1399.78 40.59" stroke="#132e65" stroke-width="1.5"></path><path d="M1399.78 40.59L1241.39 -50.04" stroke="#132e65" stroke-width="1.5"></path><path d="M1399.78 40.59L1437.42 227.82" stroke="#132e65" stroke-width="1.5"></path><path d="M1437.42 227.82L1437.42 227.82" stroke="#132e65" stroke-width="1.5"></path><path d="M1437.42 227.82L1398.48 348.47" stroke="#132e65" stroke-width="1.5"></path><path d="M1398.48 348.47L1398.48 348.47" stroke="#132e65" stroke-width="1.5"></path><path d="M1447.84 536.2L1447.84 536.2" stroke="#132e65" stroke-width="1.5"></path><path d="M1447.84 536.2L1398.48 348.47" stroke="#132e65" stroke-width="1.5"></path><path d="M1447.84 536.2L1241.42 553.75" stroke="#132e65" stroke-width="1.5"></path><path d="M1447.84 536.2L1247.34 380.97" stroke="#132e65" stroke-width="1.5"></path><path d="M1447.84 536.2L1149.04 548.96" stroke="#132e65" stroke-width="1.5"></path><path d="M1447.84 536.2L1437.42 227.82" stroke="#132e65" stroke-width="1.5"></path><path d="M1447.84 536.2L1139.8 407.06" stroke="#132e65" stroke-width="1.5"></path><circle r="5" cx="-106.55" cy="410.18" fill="#132e65"></circle><circle r="5" cx="-50.63" cy="558.59" fill="#132e65"></circle><circle r="5" cx="104.21" cy="369.71" fill="#132e65"></circle><circle r="5" cx="50.96" cy="496.03" fill="#132e65"></circle><circle r="5" cx="243.31" cy="358.1" fill="#132e65"></circle><circle r="5" cx="252.01" cy="530.59" fill="#132e65"></circle><circle r="5" cx="401.74" cy="210.33" fill="#132e65"></circle><circle r="5" cx="406.07" cy="399.94" fill="#132e65"></circle><circle r="5" cx="391.09" cy="543.99" fill="#132e65"></circle><circle r="5" cx="501.03" cy="390.63" fill="#132e65"></circle><circle r="5" cx="509.18" cy="508.56" fill="#132e65"></circle><circle r="5" cx="699.33" cy="227.01" fill="#132e65"></circle><circle r="5" cx="643.51" cy="342.39" fill="#132e65"></circle><circle r="5" cx="662" cy="545.77" fill="#132e65"></circle><circle r="5" cx="855.95" cy="-99.02" fill="#132e65"></circle><circle r="5" cx="833.8" cy="97.35" fill="#132e65"></circle><circle r="5" cx="792.18" cy="352.27" fill="#132e65"></circle><circle r="5" cx="821.6" cy="522.81" fill="#132e65"></circle><circle r="5" cx="938.77" cy="-92.18" fill="#132e65"></circle><circle r="5" cx="972.29" cy="64.15" fill="#132e65"></circle><circle r="5" cx="999.14" cy="206.07" fill="#132e65"></circle><circle r="5" cx="967.32" cy="356.82" fill="#132e65"></circle><circle r="5" cx="996.59" cy="498.81" fill="#132e65"></circle><circle r="5" cx="1123.85" cy="-40.56" fill="#132e65"></circle><circle r="5" cx="1109.51" cy="51.8" fill="#132e65"></circle><circle r="5" cx="1154.3" cy="261.48" fill="#132e65"></circle><circle r="5" cx="1139.8" cy="407.06" fill="#132e65"></circle><circle r="5" cx="1149.04" cy="548.96" fill="#132e65"></circle><circle r="5" cx="1241.39" cy="-50.04" fill="#132e65"></circle><circle r="5" cx="1279.96" cy="204.16" fill="#132e65"></circle><circle r="5" cx="1247.34" cy="380.97" fill="#132e65"></circle><circle r="5" cx="1241.42" cy="553.75" fill="#132e65"></circle><circle r="5" cx="1423.52" cy="-50.23" fill="#132e65"></circle><circle r="5" cx="1399.78" cy="40.59" fill="#132e65"></circle><circle r="5" cx="1437.42" cy="227.82" fill="#132e65"></circle><circle r="5" cx="1398.48" cy="348.47" fill="#132e65"></circle><circle r="5" cx="1447.84" cy="536.2" fill="#132e65"></circle><path d="M-80.03 492.42L-80.03 492.42" stroke="hsl(228.5, 77.2%, 51.5%)" stroke-width="1.5"></path><path d="M-80.03 492.42L-39.47 377.09" stroke="hsl(228.5, 77.2%, 51.5%)" stroke-width="1.5"></path><path d="M210.39 352.66L210.39 352.66" stroke="hsl(228.5, 77.2%, 51.5%)" stroke-width="1.5"></path><path d="M210.39 352.66L107.19 348.1" stroke="hsl(228.5, 77.2%, 51.5%)" stroke-width="1.5"></path><path d="M210.39 352.66L347.96 382.65" stroke="hsl(228.5, 77.2%, 51.5%)" stroke-width="1.5"></path><path d="M210.39 352.66L109.46 505.07" stroke="hsl(228.5, 77.2%, 51.5%)" stroke-width="1.5"></path><path d="M1115.14 369.58L1115.14 369.58" stroke="hsl(228.5, 77.2%, 51.5%)" stroke-width="1.5"></path><path d="M1115.14 369.58L1006.87 385.56" stroke="hsl(228.5, 77.2%, 51.5%)" stroke-width="1.5"></path><path d="M1115.14 369.58L1242.86 362.43" stroke="hsl(228.5, 77.2%, 51.5%)" stroke-width="1.5"></path><path d="M1115.14 369.58L1154.1 220.07" stroke="hsl(228.5, 77.2%, 51.5%)" stroke-width="1.5"></path><path d="M1115.14 369.58L995.98 226.44" stroke="hsl(228.5, 77.2%, 51.5%)" stroke-width="1.5"></path><path d="M1115.14 369.58L1109.98 560.33" stroke="hsl(228.5, 77.2%, 51.5%)" stroke-width="1.5"></path><path d="M1115.14 369.58L964.44 510.32" stroke="hsl(228.5, 77.2%, 51.5%)" stroke-width="1.5"></path><path d="M-39.47 377.09L-39.47 377.09" stroke="hsl(228.5, 77.2%, 51.5%)" stroke-width="1.5"></path><path d="M-39.47 377.09L107.19 348.1" stroke="hsl(228.5, 77.2%, 51.5%)" stroke-width="1.5"></path><path d="M-39.47 377.09L109.46 505.07" stroke="hsl(228.5, 77.2%, 51.5%)" stroke-width="1.5"></path><path d="M-39.47 377.09L210.39 352.66" stroke="hsl(228.5, 77.2%, 51.5%)" stroke-width="1.5"></path><path d="M-39.47 377.09L209.63 554.07" stroke="hsl(228.5, 77.2%, 51.5%)" stroke-width="1.5"></path><path d="M-39.47 377.09L347.96 382.65" stroke="hsl(228.5, 77.2%, 51.5%)" stroke-width="1.5"></path><path d="M107.19 348.1L107.19 348.1" stroke="hsl(228.5, 77.2%, 51.5%)" stroke-width="1.5"></path><path d="M107.19 348.1L109.46 505.07" stroke="hsl(228.5, 77.2%, 51.5%)" stroke-width="1.5"></path><path d="M109.46 505.07L109.46 505.07" stroke="hsl(228.5, 77.2%, 51.5%)" stroke-width="1.5"></path><path d="M109.46 505.07L209.63 554.07" stroke="hsl(228.5, 77.2%, 51.5%)" stroke-width="1.5"></path><path d="M109.46 505.07L-80.03 492.42" stroke="hsl(228.5, 77.2%, 51.5%)" stroke-width="1.5"></path><path d="M209.63 554.07L209.63 554.07" stroke="hsl(228.5, 77.2%, 51.5%)" stroke-width="1.5"></path><path d="M209.63 554.07L374.49 520.23" stroke="hsl(228.5, 77.2%, 51.5%)" stroke-width="1.5"></path><path d="M347.96 382.65L347.96 382.65" stroke="hsl(228.5, 77.2%, 51.5%)" stroke-width="1.5"></path><path d="M347.96 382.65L374.49 520.23" stroke="hsl(228.5, 77.2%, 51.5%)" stroke-width="1.5"></path><path d="M347.96 382.65L545.77 396.47" stroke="hsl(228.5, 77.2%, 51.5%)" stroke-width="1.5"></path><path d="M347.96 382.65L531.86 490.28" stroke="hsl(228.5, 77.2%, 51.5%)" stroke-width="1.5"></path><path d="M347.96 382.65L209.63 554.07" stroke="hsl(228.5, 77.2%, 51.5%)" stroke-width="1.5"></path><path d="M347.96 382.65L107.19 348.1" stroke="hsl(228.5, 77.2%, 51.5%)" stroke-width="1.5"></path><path d="M374.49 520.23L374.49 520.23" stroke="hsl(228.5, 77.2%, 51.5%)" stroke-width="1.5"></path><path d="M374.49 520.23L531.86 490.28" stroke="hsl(228.5, 77.2%, 51.5%)" stroke-width="1.5"></path><path d="M374.49 520.23L545.77 396.47" stroke="hsl(228.5, 77.2%, 51.5%)" stroke-width="1.5"></path><path d="M374.49 520.23L210.39 352.66" stroke="hsl(228.5, 77.2%, 51.5%)" stroke-width="1.5"></path><path d="M374.49 520.23L109.46 505.07" stroke="hsl(228.5, 77.2%, 51.5%)" stroke-width="1.5"></path><path d="M545.77 396.47L545.77 396.47" stroke="hsl(228.5, 77.2%, 51.5%)" stroke-width="1.5"></path><path d="M545.77 396.47L531.86 490.28" stroke="hsl(228.5, 77.2%, 51.5%)" stroke-width="1.5"></path><path d="M545.77 396.47L642.27 510.33" stroke="hsl(228.5, 77.2%, 51.5%)" stroke-width="1.5"></path><path d="M545.77 396.47L694.56 410.72" stroke="hsl(228.5, 77.2%, 51.5%)" stroke-width="1.5"></path><path d="M531.86 490.28L531.86 490.28" stroke="hsl(228.5, 77.2%, 51.5%)" stroke-width="1.5"></path><path d="M531.86 490.28L642.27 510.33" stroke="hsl(228.5, 77.2%, 51.5%)" stroke-width="1.5"></path><path d="M531.86 490.28L694.56 410.72" stroke="hsl(228.5, 77.2%, 51.5%)" stroke-width="1.5"></path><path d="M694.56 410.72L694.56 410.72" stroke="hsl(228.5, 77.2%, 51.5%)" stroke-width="1.5"></path><path d="M694.56 410.72L642.27 510.33" stroke="hsl(228.5, 77.2%, 51.5%)" stroke-width="1.5"></path><path d="M694.56 410.72L793.27 342.23" stroke="hsl(228.5, 77.2%, 51.5%)" stroke-width="1.5"></path><path d="M694.56 410.72L796.09 540.95" stroke="hsl(228.5, 77.2%, 51.5%)" stroke-width="1.5"></path><path d="M642.27 510.33L642.27 510.33" stroke="hsl(228.5, 77.2%, 51.5%)" stroke-width="1.5"></path><path d="M793.27 342.23L793.27 342.23" stroke="hsl(228.5, 77.2%, 51.5%)" stroke-width="1.5"></path><path d="M793.27 342.23L796.09 540.95" stroke="hsl(228.5, 77.2%, 51.5%)" stroke-width="1.5"></path><path d="M796.09 540.95L796.09 540.95" stroke="hsl(228.5, 77.2%, 51.5%)" stroke-width="1.5"></path><path d="M796.09 540.95L642.27 510.33" stroke="hsl(228.5, 77.2%, 51.5%)" stroke-width="1.5"></path><path d="M796.09 540.95L964.44 510.32" stroke="hsl(228.5, 77.2%, 51.5%)" stroke-width="1.5"></path><path d="M796.09 540.95L1006.87 385.56" stroke="hsl(228.5, 77.2%, 51.5%)" stroke-width="1.5"></path><path d="M796.09 540.95L531.86 490.28" stroke="hsl(228.5, 77.2%, 51.5%)" stroke-width="1.5"></path><path d="M995.98 226.44L995.98 226.44" stroke="hsl(228.5, 77.2%, 51.5%)" stroke-width="1.5"></path><path d="M995.98 226.44L1154.1 220.07" stroke="hsl(228.5, 77.2%, 51.5%)" stroke-width="1.5"></path><path d="M995.98 226.44L1006.87 385.56" stroke="hsl(228.5, 77.2%, 51.5%)" stroke-width="1.5"></path><path d="M1006.87 385.56L1006.87 385.56" stroke="hsl(228.5, 77.2%, 51.5%)" stroke-width="1.5"></path><path d="M1006.87 385.56L964.44 510.32" stroke="hsl(228.5, 77.2%, 51.5%)" stroke-width="1.5"></path><path d="M964.44 510.32L964.44 510.32" stroke="hsl(228.5, 77.2%, 51.5%)" stroke-width="1.5"></path><path d="M964.44 510.32L1109.98 560.33" stroke="hsl(228.5, 77.2%, 51.5%)" stroke-width="1.5"></path><path d="M964.44 510.32L793.27 342.23" stroke="hsl(228.5, 77.2%, 51.5%)" stroke-width="1.5"></path><path d="M964.44 510.32L995.98 226.44" stroke="hsl(228.5, 77.2%, 51.5%)" stroke-width="1.5"></path><path d="M1104.42 -61.69L1104.42 -61.69" stroke="hsl(228.5, 77.2%, 51.5%)" stroke-width="1.5"></path><path d="M1104.42 -61.69L1149.65 40.13" stroke="hsl(228.5, 77.2%, 51.5%)" stroke-width="1.5"></path><path d="M1104.42 -61.69L1298.91 -95.43" stroke="hsl(228.5, 77.2%, 51.5%)" stroke-width="1.5"></path><path d="M1104.42 -61.69L1282.77 59.55" stroke="hsl(228.5, 77.2%, 51.5%)" stroke-width="1.5"></path><path d="M1104.42 -61.69L1154.1 220.07" stroke="hsl(228.5, 77.2%, 51.5%)" stroke-width="1.5"></path><path d="M1104.42 -61.69L1389.15 -96.14" stroke="hsl(228.5, 77.2%, 51.5%)" stroke-width="1.5"></path><path d="M1149.65 40.13L1149.65 40.13" stroke="hsl(228.5, 77.2%, 51.5%)" stroke-width="1.5"></path><path d="M1149.65 40.13L1282.77 59.55" stroke="hsl(228.5, 77.2%, 51.5%)" stroke-width="1.5"></path><path d="M1149.65 40.13L1154.1 220.07" stroke="hsl(228.5, 77.2%, 51.5%)" stroke-width="1.5"></path><path d="M1149.65 40.13L1298.91 -95.43" stroke="hsl(228.5, 77.2%, 51.5%)" stroke-width="1.5"></path><path d="M1149.65 40.13L1291.04 217.65" stroke="hsl(228.5, 77.2%, 51.5%)" stroke-width="1.5"></path><path d="M1154.1 220.07L1154.1 220.07" stroke="hsl(228.5, 77.2%, 51.5%)" stroke-width="1.5"></path><path d="M1154.1 220.07L1291.04 217.65" stroke="hsl(228.5, 77.2%, 51.5%)" stroke-width="1.5"></path><path d="M1154.1 220.07L1242.86 362.43" stroke="hsl(228.5, 77.2%, 51.5%)" stroke-width="1.5"></path><path d="M1154.1 220.07L1282.77 59.55" stroke="hsl(228.5, 77.2%, 51.5%)" stroke-width="1.5"></path><path d="M1109.98 560.33L1109.98 560.33" stroke="hsl(228.5, 77.2%, 51.5%)" stroke-width="1.5"></path><path d="M1109.98 560.33L1006.87 385.56" stroke="hsl(228.5, 77.2%, 51.5%)" stroke-width="1.5"></path><path d="M1298.91 -95.43L1298.91 -95.43" stroke="hsl(228.5, 77.2%, 51.5%)" stroke-width="1.5"></path><path d="M1298.91 -95.43L1389.15 -96.14" stroke="hsl(228.5, 77.2%, 51.5%)" stroke-width="1.5"></path><path d="M1298.91 -95.43L1282.77 59.55" stroke="hsl(228.5, 77.2%, 51.5%)" stroke-width="1.5"></path><path d="M1298.91 -95.43L1456.94 43.12" stroke="hsl(228.5, 77.2%, 51.5%)" stroke-width="1.5"></path><path d="M1282.77 59.55L1282.77 59.55" stroke="hsl(228.5, 77.2%, 51.5%)" stroke-width="1.5"></path><path d="M1282.77 59.55L1291.04 217.65" stroke="hsl(228.5, 77.2%, 51.5%)" stroke-width="1.5"></path><path d="M1291.04 217.65L1291.04 217.65" stroke="hsl(228.5, 77.2%, 51.5%)" stroke-width="1.5"></path><path d="M1291.04 217.65L1242.86 362.43" stroke="hsl(228.5, 77.2%, 51.5%)" stroke-width="1.5"></path><path d="M1291.04 217.65L1459.36 215.65" stroke="hsl(228.5, 77.2%, 51.5%)" stroke-width="1.5"></path><path d="M1242.86 362.43L1242.86 362.43" stroke="hsl(228.5, 77.2%, 51.5%)" stroke-width="1.5"></path><path d="M1242.86 362.43L1421.15 400.05" stroke="hsl(228.5, 77.2%, 51.5%)" stroke-width="1.5"></path><path d="M1242.86 362.43L1006.87 385.56" stroke="hsl(228.5, 77.2%, 51.5%)" stroke-width="1.5"></path><path d="M1389.15 -96.14L1389.15 -96.14" stroke="hsl(228.5, 77.2%, 51.5%)" stroke-width="1.5"></path><path d="M1389.15 -96.14L1456.94 43.12" stroke="hsl(228.5, 77.2%, 51.5%)" stroke-width="1.5"></path><path d="M1389.15 -96.14L1282.77 59.55" stroke="hsl(228.5, 77.2%, 51.5%)" stroke-width="1.5"></path><path d="M1456.94 43.12L1456.94 43.12" stroke="hsl(228.5, 77.2%, 51.5%)" stroke-width="1.5"></path><path d="M1456.94 43.12L1459.36 215.65" stroke="hsl(228.5, 77.2%, 51.5%)" stroke-width="1.5"></path><path d="M1456.94 43.12L1282.77 59.55" stroke="hsl(228.5, 77.2%, 51.5%)" stroke-width="1.5"></path><path d="M1459.36 215.65L1459.36 215.65" stroke="hsl(228.5, 77.2%, 51.5%)" stroke-width="1.5"></path><path d="M1459.36 215.65L1421.15 400.05" stroke="hsl(228.5, 77.2%, 51.5%)" stroke-width="1.5"></path><path d="M1459.36 215.65L1282.77 59.55" stroke="hsl(228.5, 77.2%, 51.5%)" stroke-width="1.5"></path><path d="M1459.36 215.65L1242.86 362.43" stroke="hsl(228.5, 77.2%, 51.5%)" stroke-width="1.5"></path><path d="M1421.15 400.05L1421.15 400.05" stroke="hsl(228.5, 77.2%, 51.5%)" stroke-width="1.5"></path><path d="M1421.15 400.05L1291.04 217.65" stroke="hsl(228.5, 77.2%, 51.5%)" stroke-width="1.5"></path><circle r="25" cx="-80.03" cy="492.42" fill="url(&quot;#SvgjsRadialGradient1015&quot;)"></circle><circle r="25" cx="210.39" cy="352.66" fill="url(&quot;#SvgjsRadialGradient1015&quot;)"></circle><circle r="25" cx="1115.14" cy="369.58" fill="url(&quot;#SvgjsRadialGradient1015&quot;)"></circle><circle r="5" cx="-39.47" cy="377.09" fill="#8b9ad9"></circle><circle r="5" cx="107.19" cy="348.1" fill="#8b9ad9"></circle><circle r="5" cx="109.46" cy="505.07" fill="#8b9ad9"></circle><circle r="5" cx="209.63" cy="554.07" fill="#8b9ad9"></circle><circle r="5" cx="347.96" cy="382.65" fill="#8b9ad9"></circle><circle r="5" cx="374.49" cy="520.23" fill="#8b9ad9"></circle><circle r="5" cx="545.77" cy="396.47" fill="#8b9ad9"></circle><circle r="5" cx="531.86" cy="490.28" fill="#8b9ad9"></circle><circle r="5" cx="694.56" cy="410.72" fill="#8b9ad9"></circle><circle r="5" cx="642.27" cy="510.33" fill="#8b9ad9"></circle><circle r="5" cx="793.27" cy="342.23" fill="#8b9ad9"></circle><circle r="5" cx="796.09" cy="540.95" fill="#8b9ad9"></circle><circle r="5" cx="995.98" cy="226.44" fill="#8b9ad9"></circle><circle r="5" cx="1006.87" cy="385.56" fill="#8b9ad9"></circle><circle r="5" cx="964.44" cy="510.32" fill="#8b9ad9"></circle><circle r="5" cx="1104.42" cy="-61.69" fill="#8b9ad9"></circle><circle r="5" cx="1149.65" cy="40.13" fill="#8b9ad9"></circle><circle r="5" cx="1154.1" cy="220.07" fill="#8b9ad9"></circle><circle r="5" cx="1109.98" cy="560.33" fill="#8b9ad9"></circle><circle r="5" cx="1298.91" cy="-95.43" fill="#8b9ad9"></circle><circle r="5" cx="1282.77" cy="59.55" fill="#8b9ad9"></circle><circle r="5" cx="1291.04" cy="217.65" fill="#8b9ad9"></circle><circle r="5" cx="1242.86" cy="362.43" fill="#8b9ad9"></circle><circle r="5" cx="1389.15" cy="-96.14" fill="#8b9ad9"></circle><circle r="5" cx="1456.94" cy="43.12" fill="#8b9ad9"></circle><circle r="5" cx="1459.36" cy="215.65" fill="#8b9ad9"></circle><circle r="5" cx="1421.15" cy="400.05" fill="#8b9ad9"></circle></g><defs><mask id="SvgjsMask1014"><rect width="1300" height="400" fill="#ffffff"></rect></mask><radialGradient id="SvgjsRadialGradient1015"><stop stop-color="#ffffff" offset="0.1"></stop><stop stop-color="#1735b3" offset="0.2"></stop><stop stop-color="rgba(23, 53, 179, 0)" offset="1"></stop></radialGradient></defs></svg>