<svg xmlns="http://www.w3.org/2000/svg" version="1.1" xmlns:xlink="http://www.w3.org/1999/xlink" xmlns:svgjs="http://svgjs.dev/svgjs" width="1300" height="400" preserveAspectRatio="none" viewBox="0 0 1300 400"><g mask="url(&quot;#SvgjsMask1014&quot;)" fill="none"><rect width="1300" height="400" x="0" y="0" fill="rgba(14, 122, 124, 1)"></rect><path d="M1300 0L1188.64 0L1300 161.76z" fill="rgba(255, 255, 255, .1)"></path><path d="M1188.64 0L1300 161.76L1300 162.03L587.6600000000001 0z" fill="rgba(255, 255, 255, .075)"></path><path d="M587.66 0L1300 162.03L1300 244.93L500.15 0z" fill="rgba(255, 255, 255, .05)"></path><path d="M500.15 0L1300 244.93L1300 286.51L402.94 0z" fill="rgba(255, 255, 255, .025)"></path><path d="M0 400L373.19 400L0 280.28z" fill="rgba(0, 0, 0, .1)"></path><path d="M0 280.28L373.19 400L790.54 400L0 142.30999999999997z" fill="rgba(0, 0, 0, .075)"></path><path d="M0 142.31L790.54 400L863.04 400L0 99.08000000000001z" fill="rgba(0, 0, 0, .05)"></path><path d="M0 99.07999999999998L863.04 400L880.4499999999999 400L0 62.08999999999998z" fill="rgba(0, 0, 0, .025)"></path></g><defs><mask id="SvgjsMask1014"><rect width="1300" height="400" fill="#ffffff"></rect></mask></defs></svg>